<svg version="1.1" id="Layer_1" xmlns="http://www.w3.org/2000/svg" xmlns:xlink="http://www.w3.org/1999/xlink" x="0px" y="0px"
	 width="100%" viewBox="0 0 140 129" enable-background="new 0 0 140 129" xml:space="preserve">
<path fill="#FAFDFE" opacity="1.000000" stroke="none" 
	d="
M78.000000,130.000000 
	C52.000000,130.000000 26.500000,130.000000 1.000000,130.000000 
	C1.000000,87.000000 1.000000,44.000000 1.000000,1.000000 
	C47.666668,1.000000 94.333336,1.000000 141.000000,1.000000 
	C141.000000,44.000000 141.000000,87.000000 141.000000,130.000000 
	C120.166664,130.000000 99.333336,130.000000 78.000000,130.000000 
M78.157143,118.664116 
	C80.310173,118.448547 82.463997,118.240669 84.616104,118.016228 
	C111.849464,115.176155 130.907928,97.191643 133.937973,69.994827 
	C135.387039,56.988319 134.792664,43.749393 135.024292,30.613979 
	C135.143707,23.842209 135.045258,17.066599 135.045258,10.283308 
	C126.469345,10.283308 118.450111,10.283308 110.136055,10.283308 
	C110.136055,24.836849 110.255714,38.969666 110.072929,53.098568 
	C110.006508,58.232819 109.657242,63.444027 108.669106,68.469116 
	C106.545601,79.267982 97.223175,84.883553 85.788559,82.337303 
	C85.788559,69.870857 85.788559,57.292427 85.788559,44.534897 
	C77.124016,44.534897 68.935692,44.534897 60.606003,44.534897 
	C60.606003,69.162277 60.606003,93.402405 60.606003,118.732468 
	C66.315536,118.732468 71.771782,118.732468 78.157143,118.664116 
M10.932039,32.500050 
	C11.302803,45.790829 10.750995,59.187565 12.262346,72.347351 
	C14.483437,91.687042 24.366297,106.250404 43.015202,113.836884 
	C44.618435,114.489090 46.374561,114.765450 48.766823,115.405640 
	C48.766823,104.212364 48.826027,93.769096 48.671055,83.328995 
	C48.656300,82.334953 47.514027,80.961121 46.535412,80.442390 
	C40.276756,77.124939 37.800835,71.486961 36.987385,64.959175 
	C36.392487,60.185253 36.080357,55.351051 36.027924,50.539513 
	C35.897350,38.557964 36.070534,26.572735 35.886398,14.592599 
	C35.862450,13.034640 34.514984,10.195244 33.675835,10.155401 
	C26.270750,9.803818 18.841965,9.951446 10.931993,9.951446 
	C10.931993,17.590014 10.931993,24.545069 10.932039,32.500050 
M60.738213,19.343618 
	C59.893528,26.530579 62.400204,31.608297 68.087845,34.231606 
	C72.859940,36.432640 79.259956,35.294941 82.937080,31.591925 
	C86.933640,27.567223 87.997543,21.984898 85.749527,16.835003 
	C83.608269,11.929714 78.922951,8.946919 73.443634,9.000751 
	C67.499031,9.059155 63.460365,12.146727 60.738213,19.343618 
z"/>
<path fill="#20345D" opacity="1.000000" stroke="none" 
	d="
M77.692581,118.698288 
	C71.771782,118.732468 66.315536,118.732468 60.606003,118.732468 
	C60.606003,93.402405 60.606003,69.162277 60.606003,44.534897 
	C68.935692,44.534897 77.124016,44.534897 85.788559,44.534897 
	C85.788559,57.292427 85.788559,69.870857 85.788559,82.337303 
	C97.223175,84.883553 106.545601,79.267982 108.669106,68.469116 
	C109.657242,63.444027 110.006508,58.232819 110.072929,53.098568 
	C110.255714,38.969666 110.136055,24.836849 110.136055,10.283308 
	C118.450111,10.283308 126.469345,10.283308 135.045258,10.283308 
	C135.045258,17.066599 135.143707,23.842209 135.024292,30.613979 
	C134.792664,43.749393 135.387039,56.988319 133.937973,69.994827 
	C130.907928,97.191643 111.849464,115.176155 84.616104,118.016228 
	C82.463997,118.240669 80.310173,118.448547 77.692581,118.698288 
z"/>
<path fill="#08AEEC" opacity="1.000000" stroke="none" 
	d="
M10.932016,32.000088 
	C10.931993,24.545069 10.931993,17.590014 10.931993,9.951446 
	C18.841965,9.951446 26.270750,9.803818 33.675835,10.155401 
	C34.514984,10.195244 35.862450,13.034640 35.886398,14.592599 
	C36.070534,26.572735 35.897350,38.557964 36.027924,50.539513 
	C36.080357,55.351051 36.392487,60.185253 36.987385,64.959175 
	C37.800835,71.486961 40.276756,77.124939 46.535412,80.442390 
	C47.514027,80.961121 48.656300,82.334953 48.671055,83.328995 
	C48.826027,93.769096 48.766823,104.212364 48.766823,115.405640 
	C46.374561,114.765450 44.618435,114.489090 43.015202,113.836884 
	C24.366297,106.250404 14.483437,91.687042 12.262346,72.347351 
	C10.750995,59.187565 11.302803,45.790829 10.932016,32.000088 
z"/>
<path fill="#0DAFEB" opacity="1.000000" stroke="none" 
	d="
M60.822994,18.964035 
	C63.460365,12.146727 67.499031,9.059155 73.443634,9.000751 
	C78.922951,8.946919 83.608269,11.929714 85.749527,16.835003 
	C87.997543,21.984898 86.933640,27.567223 82.937080,31.591925 
	C79.259956,35.294941 72.859940,36.432640 68.087845,34.231606 
	C62.400204,31.608297 59.893528,26.530579 60.822994,18.964035 
z"/>
</svg>